<?xml version="1.0" encoding="utf-8"?>
<!-- Generator: Adobe Illustrator 24.2.1, SVG Export Plug-In . SVG Version: 6.00 Build 0)  -->
<svg version="1.1" id="圖層_1" xmlns="http://www.w3.org/2000/svg" xmlns:xlink="http://www.w3.org/1999/xlink" x="0px" y="0px"
	 viewBox="0 0 24 24" style="enable-background:new 0 0 24 24;" xml:space="preserve">
<style type="text/css">
	.st0{fill:#FFFFFF;}
</style>
<path class="st0" d="M19,23H5c-0.8,0-1.6-0.3-2.1-0.9C2.3,21.6,2,20.8,2,20V6c0-0.2,0.1-0.4,0.2-0.6l3-4C5.4,1.1,5.7,1,6,1h12
	c0.3,0,0.6,0.1,0.8,0.4l3,4C21.9,5.6,22,5.8,22,6v14c0,0.8-0.3,1.6-0.9,2.1S19.8,23,19,23z M4,6.3V20c0,0.3,0.1,0.5,0.3,0.7
	C4.5,20.9,4.7,21,5,21h14c0.3,0,0.5-0.1,0.7-0.3S20,20.3,20,20V6.3L17.5,3h-11L4,6.3z"/>
<path class="st0" d="M21,7H3C2.4,7,2,6.6,2,6s0.4-1,1-1h18c0.6,0,1,0.4,1,1S21.6,7,21,7z"/>
<path class="st0" d="M12,15c-1.3,0-2.6-0.5-3.5-1.5C7.5,12.6,7,11.3,7,10c0-0.6,0.4-1,1-1s1,0.4,1,1c0,0.8,0.3,1.6,0.9,2.1
	c1.1,1.1,3.1,1.1,4.2,0c0.6-0.6,0.9-1.3,0.9-2.1c0-0.6,0.4-1,1-1s1,0.4,1,1c0,1.3-0.5,2.6-1.5,3.5C14.6,14.5,13.3,15,12,15z"/>
</svg>
