<?xml version="1.0" encoding="utf-8"?>
<!-- Generator: Adobe Illustrator 24.2.1, SVG Export Plug-In . SVG Version: 6.00 Build 0)  -->
<svg version="1.1" id="圖層_1" xmlns="http://www.w3.org/2000/svg" xmlns:xlink="http://www.w3.org/1999/xlink" x="0px" y="0px"
	 viewBox="0 0 29 29" style="enable-background:new 0 0 29 29;" xml:space="preserve">
<style type="text/css">
	.st0{fill:#FFFFFF;}
</style>
<path class="st0" d="M19.3,26.4H9.7c-1.9,0-3.6-0.7-5-2.1c-1.3-1.3-2.1-3.1-2.1-5V9.7c0-1.9,0.7-3.6,2.1-5c1.3-1.3,3.1-2.1,5-2.1
	h9.7c1.9,0,3.6,0.7,5,2.1c1.3,1.3,2.1,3.1,2.1,5v9.7c0,1.9-0.7,3.6-2.1,5S21.2,26.4,19.3,26.4z M9.7,4.6c-1.3,0-2.6,0.5-3.6,1.5
	c-1,1-1.5,2.2-1.5,3.6v9.7c0,1.3,0.5,2.6,1.5,3.6c1,1,2.2,1.5,3.6,1.5h9.7c1.3,0,2.6-0.5,3.6-1.5s1.5-2.2,1.5-3.6V9.7
	c0-1.3-0.5-2.6-1.5-3.6c-1-1-2.2-1.5-3.6-1.5H9.7z"/>
<path class="st0" d="M13.3,26.4c-0.6,0-1-0.4-1-1V14.5c0-2.7,0.7-5.8,5.8-5.8c0.6,0,1,0.4,1,1s-0.4,1-1,1c-3.3,0-3.8,1.2-3.8,3.8
	v10.9C14.3,25.9,13.8,26.4,13.3,26.4z"/>
<path class="st0" d="M18.1,16.7h-7.3c-0.6,0-1-0.4-1-1s0.4-1,1-1h7.3c0.6,0,1,0.4,1,1S18.7,16.7,18.1,16.7z"/>
</svg>
