<?xml version="1.0" encoding="utf-8"?>
<!-- Generator: Adobe Illustrator 24.2.3, SVG Export Plug-In . SVG Version: 6.00 Build 0)  -->
<svg version="1.1" id="圖層_1" xmlns="http://www.w3.org/2000/svg" xmlns:xlink="http://www.w3.org/1999/xlink" x="0px" y="0px"
	 viewBox="0 0 24 24" style="enable-background:new 0 0 24 24;" xml:space="preserve">
<style type="text/css">
	.st0{fill:none;}
	.st1{fill:#333333;}
</style>
<rect x="2" y="2" class="st0" width="20" height="20"/>
<g>
	<rect x="2.5" y="2.5" class="st0" width="19" height="19"/>
	<path class="st1" d="M12,19.7c-6.4,0-9.9-6.9-10.1-7.2c-0.1-0.3-0.1-0.6,0-0.9c1.1-2.1,2.6-3.8,4.5-5.3C6.8,6,7.4,6,7.8,6.3
		l6.7,6.7c0,0,0,0,0,0l3.2,3.2c0.2,0.2,0.3,0.5,0.3,0.8c0,0.3-0.2,0.6-0.4,0.7C16,19,14,19.6,12,19.7z M4,12c0.8,1.4,3.7,5.7,8,5.7
		c1.2,0,2.3-0.3,3.4-0.9l-1.7-1.7c-0.1,0.1-0.2,0.1-0.3,0.2c-0.4,0.2-0.9,0.3-1.4,0.3c-0.5,0-0.9-0.1-1.4-0.3
		c-0.4-0.2-0.8-0.4-1.2-0.8c-0.3-0.3-0.6-0.7-0.8-1.2c-0.2-0.4-0.3-0.9-0.3-1.4c0-0.5,0.1-0.9,0.3-1.4c0-0.1,0.1-0.2,0.2-0.3L7,8.4
		C5.8,9.4,4.8,10.6,4,12z M10.5,11.9c0,0.1,0,0.1,0,0.2c0,0.2,0,0.4,0.1,0.6c0.1,0.2,0.2,0.4,0.3,0.5c0.1,0.1,0.3,0.3,0.5,0.3
		c0.2,0.1,0.4,0.1,0.6,0.1c0.1,0,0.1,0,0.2,0L10.5,11.9z M19.4,15.7c-0.3,0-0.5-0.1-0.7-0.3L9.5,6.2C9.3,6,9.2,5.6,9.3,5.3
		S9.7,4.6,10,4.6c0.6-0.2,1.3-0.2,2-0.2c6.4,0,9.9,6.9,10.1,7.2c0.1,0.3,0.1,0.6,0,0.9c-0.5,1-1.2,2-1.9,2.8
		C20,15.5,19.7,15.6,19.4,15.7C19.4,15.7,19.4,15.7,19.4,15.7z M12.5,6.4l6.8,6.8c0.3-0.4,0.5-0.8,0.7-1.2
		C19.2,10.6,16.5,6.7,12.5,6.4z"/>
	<path class="st1" d="M21.2,22.2c-0.3,0-0.5-0.1-0.7-0.3L2.1,3.5c-0.4-0.4-0.4-1,0-1.4s1-0.4,1.4,0l18.3,18.3c0.4,0.4,0.4,1,0,1.4
		C21.7,22.1,21.4,22.2,21.2,22.2z"/>
</g>
</svg>
