<?xml version="1.0" encoding="utf-8"?>
<!-- Generator: Adobe Illustrator 24.2.3, SVG Export Plug-In . SVG Version: 6.00 Build 0)  -->
<svg version="1.1" id="圖層_1" xmlns="http://www.w3.org/2000/svg" xmlns:xlink="http://www.w3.org/1999/xlink" x="0px" y="0px"
	 viewBox="0 0 24 24" style="enable-background:new 0 0 24 24;" xml:space="preserve">
<style type="text/css">
	.st0{fill:none;}
	.st1{fill:#C4C4C4;}
</style>
<g>
	<rect x="0.5" y="0.5" class="st0" width="23" height="23"/>
	<path class="st1" d="M19,23H5c-1.7,0-3-1.3-3-3v-7c0-1.7,1.3-3,3-3h14c1.7,0,3,1.3,3,3v7C22,21.7,20.7,23,19,23z M5,12
		c-0.6,0-1,0.4-1,1v7c0,0.6,0.4,1,1,1h14c0.6,0,1-0.4,1-1v-7c0-0.6-0.4-1-1-1H5z"/>
	<path class="st1" d="M17,12c-0.6,0-1-0.4-1-1V7c0-1.1-0.4-2.1-1.2-2.8c0,0-0.1,0-0.1-0.1C14.1,3.4,13.1,3,12,3
		c-1.1,0-2.1,0.4-2.8,1.2c0,0,0,0.1-0.1,0.1C8.4,4.9,8,5.9,8,7v4c0,0.6-0.4,1-1,1s-1-0.4-1-1V7c0-1.6,0.7-3.2,1.8-4.2
		C8.8,1.7,10.4,1,12,1s3.2,0.7,4.2,1.8C17.3,3.8,18,5.4,18,7v4C18,11.6,17.6,12,17,12z"/>
</g>
</svg>
