<?xml version="1.0" encoding="utf-8"?>
<!-- Generator: Adobe Illustrator 24.2.3, SVG Export Plug-In . SVG Version: 6.00 Build 0)  -->
<svg version="1.1" id="圖層_1" xmlns="http://www.w3.org/2000/svg" xmlns:xlink="http://www.w3.org/1999/xlink" x="0px" y="0px"
	 viewBox="0 0 24 24" style="enable-background:new 0 0 24 24;" xml:space="preserve">
<style type="text/css">
	.st0{fill:#333333;}
	.st1{fill:none;}
</style>
<g id="圖層_2_1_">
	<g id="圖層_1-2">
		<path class="st0" d="M7.5,22.5C7.5,22.5,7.5,22.5,7.5,22.5c-1.8,0-3.4-0.7-4.6-1.9c-2.5-2.6-2.4-6.7,0.2-9.2
			c2.3-2.1,5.7-2.3,8.2-0.6l3.5-3.5c0,0,0,0,0,0l5.5-5.5c0.4-0.4,1-0.4,1.4,0C21.9,2,22,2.2,22,2.5S21.9,3,21.7,3.2l-1.3,1.3
			l2.3,2.3C22.9,7,23,7.2,23,7.5S22.9,8,22.7,8.2l-3.5,3.5c-0.4,0.4-1,0.4-1.4,0l-2.3-2.3l-2.7,2.7c1.9,2.5,1.7,6.1-0.6,8.4
			c-0.6,0.6-1.3,1.1-2.1,1.4C9.2,22.3,8.3,22.5,7.5,22.5z M7.6,11.6c-1.1,0-2.2,0.4-3.1,1.2c-0.9,0.8-1.4,1.9-1.4,3.1
			c0,1.2,0.4,2.3,1.2,3.2c0.8,0.8,2,1.3,3.2,1.3c0,0,0,0,0,0c0.6,0,1.2-0.1,1.7-0.3c0.5-0.2,1-0.6,1.5-1c1.7-1.7,1.7-4.5,0-6.3
			c0,0,0,0-0.1-0.1C9.8,12,8.7,11.6,7.6,11.6z M16.9,8l1.6,1.6l2.1-2.1L19,5.9L16.9,8z"/>
		<rect class="st1" width="24" height="24"/>
	</g>
</g>
</svg>
