<?xml version="1.0" encoding="utf-8"?>
<!-- Generator: Adobe Illustrator 24.2.3, SVG Export Plug-In . SVG Version: 6.00 Build 0)  -->
<svg version="1.1" id="圖層_1" xmlns="http://www.w3.org/2000/svg" xmlns:xlink="http://www.w3.org/1999/xlink" x="0px" y="0px"
	 viewBox="0 0 24 24" style="enable-background:new 0 0 24 24;" xml:space="preserve">
<style type="text/css">
	.st0{fill:none;}
	.st1{fill:#333333;}
</style>
<g id="圖層_2_1_">
	<g id="圖層_1-2">
		<rect class="st0" width="24" height="24"/>
		<path class="st1" d="M10,17c-0.3,0-0.5-0.1-0.7-0.3c-0.4-0.4-0.4-1,0-1.4l7.9-7.9c0.4-0.4,1-0.4,1.4,0c0.4,0.4,0.4,1,0,1.4
			l-7.8,7.9C10.5,16.9,10.3,17,10,17z"/>
		<path class="st1" d="M10.8,11.3C10.8,11.3,10.8,11.3,10.8,11.3c-0.7,0-1.3-0.3-1.7-0.7c-0.4-0.5-0.7-1.1-0.7-1.7
			c0-1.3,1.1-2.4,2.4-2.4s2.4,1.1,2.4,2.4S12.2,11.3,10.8,11.3L10.8,11.3C10.8,11.3,10.8,11.3,10.8,11.3z M10.9,8.5
			c-0.2,0-0.4,0.2-0.4,0.4c0,0.2,0.1,0.2,0.1,0.3s0.1,0.1,0.3,0.1l0,1v-1c0.2,0,0.4-0.2,0.4-0.4S11.1,8.5,10.9,8.5z"/>
		<path class="st1" d="M17,17.5L17,17.5c-0.7,0-1.3-0.3-1.7-0.7c-0.4-0.5-0.7-1.1-0.7-1.7c0-1.3,1.1-2.4,2.4-2.4s2.4,1.1,2.4,2.4
			S18.4,17.5,17,17.5z M17,14.7c-0.2,0-0.4,0.2-0.4,0.4c0,0.2,0.1,0.2,0.1,0.3c0,0,0.1,0.1,0.3,0.1l0,1v-1c0.2,0,0.4-0.2,0.4-0.4
			S17.3,14.7,17,14.7z"/>
		<path class="st1" d="M3.9,21.1c-0.8,0-1.6-0.3-2.1-0.9c-0.6-0.5-0.9-1.3-0.9-2.1V15c0-0.6,0.4-1,1-1H2c1.1,0,2-0.9,2-2
			c0-1.1-0.9-2-2-2H1.9c-0.6,0-1-0.4-1-1V5.9c0-0.4,0.1-0.7,0.3-1.1C1.4,4,2,3.4,2.8,3.2C3.2,3,3.6,2.9,4,2.9l16.3,0
			c0.8,0,1.6,0.3,2.1,0.9c0,0,0,0,0.1,0.1c0.5,0.6,0.7,1.3,0.8,2l0,12.3c0,0.4-0.1,0.9-0.3,1.2c-0.1,0.1-0.2,0.3-0.3,0.5
			c0,0.1-0.1,0.1-0.1,0.2c-0.2,0.5-0.7,0.7-1,0.8l-0.1,0c-0.4,0.2-0.8,0.3-1.2,0.3L3.9,21.1z M2.9,15.9v2.2c0,0.3,0.1,0.5,0.3,0.7
			c0.2,0.2,0.4,0.3,0.7,0.3h16.3c0.1,0,0.2,0,0.4-0.1l0.1-0.1c0,0,0.1,0,0.1,0c0.1-0.1,0.1-0.2,0.2-0.3c0-0.1,0.1-0.1,0.1-0.1
			c0.1-0.1,0.1-0.2,0.1-0.4V5.9c0-0.2-0.1-0.5-0.3-0.7c-0.2-0.2-0.4-0.3-0.7-0.3H4c-0.1,0-0.2,0-0.4,0.1C3.6,5,3.5,5.1,3.4,5.1
			c-0.2,0-0.3,0.2-0.4,0.4C3,5.5,3,5.6,3,5.7C2.9,5.8,2.9,5.9,2.9,6l0,2.1C4.7,8.5,6,10.1,6,12S4.7,15.5,2.9,15.9z M20.7,19
			C20.7,19,20.7,19.1,20.7,19C20.7,19.1,20.7,19,20.7,19z"/>
	</g>
</g>
</svg>
