<?xml version="1.0" encoding="utf-8"?>
<!-- Generator: Adobe Illustrator 24.2.3, SVG Export Plug-In . SVG Version: 6.00 Build 0)  -->
<svg version="1.1" id="圖層_1" xmlns="http://www.w3.org/2000/svg" xmlns:xlink="http://www.w3.org/1999/xlink" x="0px" y="0px"
	 viewBox="0 0 24 24" style="enable-background:new 0 0 24 24;" xml:space="preserve">
<style type="text/css">
	.st0{fill:#333333;}
	.st1{fill:none;}
</style>
<g id="圖層_2_1_">
	<g id="圖層_1-2">
		<path class="st0" d="M12,16c-2.2,0-4-1.8-4-4c0-2.2,1.8-4,4-4c2.2,0,4,1.8,4,4C16,14.2,14.2,16,12,16z M12,10c-1.1,0-2,0.9-2,2
			c0,1.1,0.9,2,2,2c1.1,0,2-0.9,2-2C14,10.9,13.1,10,12,10z"/>
		<path class="st0" d="M12.1,24c-1.7,0-3-1.3-3-3c0-0.3-0.2-0.6-0.4-0.7c-0.2-0.1-0.3-0.1-0.5-0.1c-0.2,0-0.3,0.1-0.4,0.2
			c0,0-0.1,0.1-0.2,0.2c-1.3,1-3.2,0.6-4.2-0.7c-0.7-1-0.7-2.4,0-3.5c0,0,0.1-0.1,0.1-0.1c0.1-0.1,0.2-0.3,0.2-0.4c0,0,0-0.1,0-0.1
			c0.1-0.4-0.1-0.7-0.5-0.8c0,0-0.1,0-0.1,0H3c-1.7,0-3-1.3-3-3s1.3-3,3-3c0,0,0.1,0,0.1,0c0.1,0,0.2,0,0.3-0.1
			c0.1,0,0.1-0.1,0.2-0.3c0.1-0.2,0.1-0.3,0.1-0.5c0-0.2-0.1-0.3-0.2-0.4c0,0-0.1-0.1-0.2-0.2C2.9,7,2.7,6.2,2.9,5.4
			C3,4.6,3.4,3.9,4.1,3.5c1-0.7,2.4-0.7,3.5,0c0,0,0.1,0.1,0.1,0.1C7.8,3.7,8,3.8,8.1,3.8c0.2,0,0.4,0,0.5,0C8.8,3.7,9,3.4,9,3.2V3
			c0-1.7,1.3-3,3-3s3,1.3,3,3c0,0.5,0.3,0.7,0.7,0.7c0,0,0,0,0,0c0,0,0.1,0,0.1,0c0.2,0,0.3-0.1,0.4-0.2c0,0,0.1-0.1,0.2-0.2
			c0.7-0.5,1.5-0.7,2.2-0.5c0.8,0.1,1.5,0.6,1.9,1.2c0.7,1,0.7,2.4,0,3.5c0,0-0.1,0.1-0.1,0.1c-0.1,0.1-0.2,0.3-0.2,0.4
			c0,0.2,0,0.3,0,0.4c0,0.1,0.1,0.1,0.1,0.2C20.4,8.9,20.6,9,20.8,9H21c1.7,0,3,1.3,3,3s-1.3,3-3,3c-0.3,0-0.6,0.2-0.7,0.4
			c0,0,0,0,0,0c-0.1,0.1-0.1,0.3,0,0.4c0,0.2,0.1,0.3,0.2,0.4c0,0,0.1,0.1,0.2,0.2c0.5,0.7,0.6,1.4,0.5,2.2
			c-0.1,0.8-0.6,1.5-1.2,1.9c-1,0.7-2.4,0.7-3.5,0c0,0-0.1-0.1-0.1-0.1c-0.1-0.1-0.3-0.2-0.4-0.2c-0.2,0-0.4,0-0.5,0.1
			c-0.1,0.1-0.2,0.2-0.3,0.4c0,0,0,0.1,0,0.1V21C15.1,22.7,13.7,24,12.1,24z M8.3,18.3c0.4,0,0.7,0.1,1.1,0.2c1,0.4,1.6,1.3,1.7,2.4
			c0,0,0,0.1,0,0.1c0,0.6,0.4,1,1,1s1-0.4,1-1v-0.2c0-0.2,0-0.4,0.1-0.6c0.2-0.7,0.6-1.3,1.2-1.7c0.6-0.4,1.3-0.5,2-0.4
			c0.5,0.1,1,0.3,1.3,0.7c0.3,0.2,0.8,0.2,1.1,0c0.4-0.3,0.5-0.9,0.3-1.3c-0.4-0.4-0.6-0.9-0.7-1.4c-0.1-0.5,0-1.1,0.2-1.6
			c0.4-1,1.4-1.6,2.4-1.6c0.6,0,1.1-0.4,1.1-1s-0.4-1-1-1h-0.2c-1.1,0-2-0.6-2.4-1.6c0-0.1-0.1-0.2-0.1-0.3
			c-0.2-0.5-0.2-0.9-0.1-1.4c0.1-0.5,0.3-1,0.7-1.4c0.2-0.3,0.2-0.8,0-1.1c-0.2-0.2-0.4-0.4-0.6-0.4c-0.2,0-0.5,0-0.7,0.1
			c-0.4,0.4-0.9,0.6-1.4,0.7c-0.1,0-0.3,0-0.5,0c0,0,0,0,0,0c-1.5,0-2.7-1.2-2.7-2.7C13,2.4,12.6,2,12,2s-1,0.4-1,1v0.2
			c0,1.1-0.6,2-1.6,2.4c-0.5,0.2-1,0.3-1.6,0.2c-0.5-0.1-1-0.3-1.4-0.7c0,0,0,0,0,0C6,4.9,5.6,4.9,5.3,5.1C5,5.3,4.9,5.5,4.9,5.8
			c0,0.2,0,0.5,0.1,0.7c0.4,0.4,0.6,0.9,0.7,1.4c0.1,0.5,0,1.1-0.2,1.6C5.3,9.9,5,10.3,4.6,10.6C4.1,10.9,3.6,11,3,11
			c-0.6,0-1,0.4-1,1s0.4,1,1,1h0.2c0.2,0,0.4,0,0.6,0.1c0.7,0.2,1.3,0.6,1.7,1.2c0.4,0.6,0.5,1.3,0.4,1.9c-0.1,0.5-0.3,1.1-0.7,1.5
			c0,0,0,0,0,0c-0.2,0.3-0.2,0.8,0,1.1C5.4,19.2,6,19.3,6.5,19c0.4-0.4,0.9-0.6,1.4-0.7C8,18.3,8.2,18.3,8.3,18.3z M19.4,15L19.4,15
			L19.4,15z"/>
		<rect class="st1" width="24" height="24"/>
	</g>
</g>
</svg>
