<?xml version="1.0" encoding="utf-8"?>
<!-- Generator: Adobe Illustrator 24.2.3, SVG Export Plug-In . SVG Version: 6.00 Build 0)  -->
<svg version="1.1" id="圖層_1" xmlns="http://www.w3.org/2000/svg" xmlns:xlink="http://www.w3.org/1999/xlink" x="0px" y="0px"
	 viewBox="0 0 24 24" style="enable-background:new 0 0 24 24;" xml:space="preserve">
<style type="text/css">
	.st0{fill:none;}
	.st1{fill:#C4C4C4;}
</style>
<g>
	<rect x="0.5" y="0.5" class="st0" width="23" height="23"/>
	<path class="st1" d="M12,23c-0.2,0-0.3,0-0.4-0.1C11.2,22.7,3,18.5,3,12V5c0-0.4,0.3-0.8,0.6-0.9l8-3c0.2-0.1,0.5-0.1,0.7,0l8,3
		C20.7,4.2,21,4.6,21,5v7c0,6.5-8.2,10.7-8.6,10.9C12.3,23,12.2,23,12,23z M5,5.7V12c0,4.5,5.4,7.9,7,8.9c1.6-0.9,7-4.3,7-8.9V5.7
		l-7-2.6L5,5.7z"/>
	<path class="st1" d="M11.4,14.4L11.4,14.4c-0.3,0-0.5-0.1-0.7-0.3l-1.9-1.9c-0.4-0.4-0.4-1,0-1.4c0.4-0.4,1-0.4,1.4,0l1.2,1.2
		l3.4-3.4c0.4-0.4,1-0.4,1.4,0s0.4,1,0,1.4l-4.1,4.1C11.9,14.3,11.7,14.4,11.4,14.4z"/>
</g>
</svg>
